<?xml version="1.0" encoding="utf-8"?>
<!-- Generator: Adobe Illustrator 25.3.1, SVG Export Plug-In . SVG Version: 6.00 Build 0)  -->
<svg version="1.1" id="Layer_1" xmlns="http://www.w3.org/2000/svg" xmlns:xlink="http://www.w3.org/1999/xlink" x="0px" y="0px"
	 viewBox="0 0 1774 340" style="enable-background:new 0 0 1774 340;" xml:space="preserve">
<style type="text/css">
	.st0{fill-rule:evenodd;clip-rule:evenodd;}
</style>
<g>
	<path class="st0" d="M843.6,333.6c-4.1-0.6-8-1.6-21.6-5.3c-13.5-3.7-23.5-8.5-35.7-17.1c-7.5-5.3-14.6-11.2-18.3-15.1
		c-1.5-1.6-5.2-5.4-8-8.5c-7.7-8-15.8-19.1-21.9-29.9c-3.9-6.9-11.9-24-14.8-31.7c-3.8-10.1-7.2-24.6-8.8-37.3
		c-1.9-15.2-1.8-40.9,0.3-53.7c0.4-2.4,1.2-7.5,1.8-11.2c0.5-3.8,1.8-10.2,2.7-14.2c1-4.2,2.2-9.9,2.8-12.9c0.5-2.9,1.2-5.8,1.5-6.5
		c0.3-0.7,1.8-1.8,3.7-2.8c1.7-0.8,4.6-2.8,6.6-4.3c3.5-2.9,6.2-4.6,6.5-4.1c0.2,0.1-0.8,1.5-2,3.2c-4.1,5.4-6.6,10.5-8.8,18
		c-0.5,1.8-1.7,5.7-2.5,8.4c-0.9,2.8-2,6.9-2.5,9.2c-0.5,2.3-1.4,6.3-2,8.8c-0.5,2.5-1.3,7.1-1.8,10c-0.5,3-1.2,7.7-1.9,10.4
		c-0.8,4.1-1.1,7.6-1.3,19.8c-0.4,17.8,0.4,29.4,2.8,41c1.2,5.9,5.5,18.4,9.2,27.2c5.5,12.7,9,18.7,17.5,30.3c1.8,2.4,4.5,6.1,6,8.2
		c5,6.9,15.7,19.2,21.4,24.8c8.9,8.6,23.2,17.4,37.3,22.8c5.8,2.3,18.2,5.6,24,6.6c1.9,0.3,6.3,1.1,9.8,1.9
		c5.6,1.2,7.2,1.3,16.5,1.3c17,0,32.7-2,48-6c13.8-3.7,39-13.1,42.3-15.9c0.4-0.3,0.7-1.7,0.7-3.3c0-3.1,1.2-6.2,3-7.9
		c3.5-3.2,8.6-4.9,11.6-3.7c3.3,1.2,6.8,5.9,6.8,9.1c0,4.4-2.8,9.4-6.2,11.2c-2.1,1.1-7.5,0.6-11-1c-2.7-1.2-2.7-1.2-6.3,0.5
		c-9.4,4.1-16.4,6.9-24.4,9.4c-8.8,2.8-23.2,6.3-30,7.2c-2.1,0.3-7.2,1.1-11.4,1.8c-6.5,1.1-9.8,1.3-22.3,1.5
		C851.6,334.2,846.9,334.1,843.6,333.6"/>
	<path class="st0" d="M17.6,194.1c0.1-133.6,0.1-133.6,1.2-137.6c6-21.1,21.2-35.3,41.7-38.8c2.2-0.4,36.3-0.5,114.2-0.4
		c111,0.1,111,0.1,114.8,1.2c9.8,2.8,16.8,6.9,23.7,13.9c7,7,11.2,14.6,13.9,25c1.1,4.5,1.1,4.5,1.1,137.2v132.7h-17.4h-17.4
		l-0.1-56.5l-0.1-56.5l-120.4-0.1l-120.4-0.2l0,56.8v56.8H35H17.5L17.6,194.1 M52.6,121.9c0.2-57.3,0.2-57.3,1.2-59.7
		c2.8-5.7,7.4-9.1,13.5-9.9c5.1-0.8,206.4-0.7,211.4,0c2.9,0.5,4.4,1,6.6,2.4c3.6,2.3,6.8,6.8,7.6,10.6c0.3,1.8,0.4,19.3,0.3,58
		l-0.2,55.4L172.8,179l-120.2,0.2L52.6,121.9"/>
	<path class="st0" d="M421.5,327.3c-3.7-0.5-10.3-2.5-14.3-4.2c-6.4-2.9-14.9-9.8-19.6-16c-2.9-3.8-6.8-11.7-8.5-17.5
		c-1.4-4.5-1.4-4.5-1.5-115.4c-0.1-107.2-0.1-111.1,0.8-115.5c3.8-18.1,16.8-33.1,33.9-38.8c8.2-2.8-0.5-2.5,142.8-2.6h132.2v17.3
		v17.2H559.2c-86.9,0-129.3,0.2-131.9,0.5c-2.2,0.3-4.7,1-6,1.8c-2.6,1.5-5.8,4.8-7.4,7.8c-1.1,2.2-1.1,2.2-1.3,109.7
		c-0.1,119.1-0.4,109.5,3.1,114.4c2.4,3.2,6.2,5.6,10,6.4c2,0.3,42.9,0.5,132.3,0.5h129.5v17.5v17.5H556.2
		C475.7,327.8,423.6,327.6,421.5,327.3"/>
	<path class="st0" d="M1089.6,172.6l0.2-155.1l128-0.1c83.1-0.1,130.2,0,134.2,0.3c9.8,0.8,16.9,3.2,24.8,8.4
		c11.6,7.7,19.6,19.5,22.8,34c0.5,2.3,0.7,13.8,0.7,54.7c0,40.9-0.2,52.4-0.7,54.8c-4.7,21.4-20,37-40.8,41.6
		c-2.8,0.6-8.9,0.8-30.7,1l-27.2,0.4l48.5,57.3c26.7,31.6,48.6,57.5,48.6,57.7c0,0.1-10.4,0.2-23.2,0.2l-23.1-0.1l-32.5-38.8
		c-17.9-21.4-39.7-47.3-48.4-57.7l-15.9-18.9h-65.2h-65.2V270v57.8H1107h-17.5L1089.6,172.6 M1137.8,176.3c-5-1-9.5-4.6-11.9-9.5
		c-1.1-2.2-1.1-2.2-1.2-51.4c-0.2-48.6-0.2-49.2,0.9-51.8c1.2-3.4,4.8-7.5,7.9-9c1.2-0.7,3.7-1.5,5.2-1.8c4.2-0.8,208.4-0.8,212.6,0
		c5.8,1,9.8,4.2,12.6,10c1.4,2.8,1.4,2.8,1.5,51c0.2,53.9,0.3,51.1-3.4,56.1c-2.5,3.4-6.2,5.7-10.3,6.4
		C1347.6,176.9,1141,177,1137.8,176.3"/>
	<path class="st0" d="M1445.6,172.5l0.2-155.2h23.9c13.2,0,24.1,0.2,24.3,0.4c0.2,0.2,22.9,27.2,50.6,60.1
		c27.6,32.8,78.6,93.6,113.4,135l63.2,75.2l0.1-135.3l0.2-135.4l17.2-0.1c9.6-0.1,17.4-0.1,17.5,0.1c0.2,0.1,0.2,70,0.2,155.4v155.2
		l-24.2,0h-24.1l-57.8-68.9c-31.8-37.9-82.5-98.1-112.6-133.9c-30-35.8-55.2-65.6-55.7-66.4c-0.6-0.8-1.2-1.3-1.3-1.3
		c-0.2,0-0.3,60.8-0.3,135.2v135.2H1463h-17.5L1445.6,172.5"/>
	<path class="st0" d="M992.5,298.3c-3-0.7-5.4-2.4-7-5c-1.2-1.9-1.4-2.8-1.4-5.4c0-7,5.3-11.8,12.2-11c1.3,0.1,3,0.6,3.6,1.1
		c1.2,0.8,1.2,0.7,4-2.9c6.5-8.1,14.5-20.3,19.8-30c3-5.6,3-5.6,1.6-8.1c-3.9-7.2,1.3-16.3,9.4-16.3c1.2,0,1.4-0.5,4.5-8.9
		c3.4-9.3,5.6-16.2,6.6-21.6c0.4-1.8,1.1-4.9,1.5-7c0.4-2.1,1-6.4,1.3-9.5c0.6-6.6,0.7-20,0.2-20.8c-0.2-0.3-1.4-0.9-2.7-1.4
		c-5.4-2-8.5-7.7-7-13.1c0.7-2.4,3.5-5.8,5.5-6.7c2.2-0.9,2.1-2.2-1.8-15.4c-4.5-15.6-7.2-23.9-10.2-31.1c-0.4-1-0.8-1.1-3.2-1.1
		c-3.2-0.1-5.8-1-7.9-2.9c-4.2-4-4.4-11.7-0.4-15.2c1.3-1.2,1.1-1.6-3.4-7.3c-3.4-4.5-16.9-18.3-20.2-20.8c-1.9-1.4-1.9-1.4-4.3-0.3
		c-5.8,2.5-11.8,0.4-14.6-5.2c-1.5-2.9-1.2-7.8,0.8-10.6c3.8-5.6,12.2-6.3,16.9-1.4c2.8,2.9,3.7,7.8,2.2,11.4
		c-0.7,1.7-0.7,1.7,5.7,7.2c6.5,5.6,11,10.9,17,19.7c2.8,4,2.8,4,7.3,4c4.1,0,4.7,0.1,6.6,1.4c5.5,3.8,6.2,12.5,1.5,16.8
		c-0.8,0.7-1.3,1.5-1.3,1.9c0,0.3,1.3,3.6,2.9,7.3c2.7,6,4.4,11.2,7.9,23.9c0.9,3.2,3.2,14.3,3.2,15.6c0,0.2,0.8,0.6,1.8,0.7
		c10.8,1.9,13,15.8,3.3,20.5c-2.7,1.4-2.7,1.4-2.7,8.7c0,7.5-0.9,18.3-2.3,27.2c-1.3,8.5-5.2,24-7.9,31.8c-1.1,3-1,3.9,0.4,4.8
		c0.7,0.4,1.8,2,2.5,3.4c2.2,4.6,1.5,8.8-2.1,12.6c-2.2,2.2-6.1,3.6-8.7,3.1c-1.7-0.3-1.7-0.3-4.3,4.9c-4.5,9-9.1,17-12.8,22.7
		c-2,3-4.5,7-5.5,9c-1,1.9-2.7,4.6-3.6,6c-0.9,1.4-1.7,3.1-1.7,3.8c0,3.5-4.2,8.5-7.7,9.2c-0.8,0.1-1.8,0.4-2.3,0.5
		C995,298.6,993.5,298.5,992.5,298.3"/>
	<path class="st0" d="M921.1,296.6c-4-1.2-6-4.9-5.3-10.3c0.4-3.6,1.7-5.7,4.2-7c3.6-1.9,8-1.1,11.1,1.8c2.2,2.2,2.7,2.1,9.2-1.2
		c9.5-4.8,20.7-13.8,29.3-23.5c7.7-8.7,14.2-16.6,16.8-20.5c1.6-2.4,3.5-4.9,4.2-5.8c1.9-2,8.2-11.6,10.6-15.8
		c2.1-3.9,7.8-16.8,7.8-17.7c0-0.4-0.7-1.3-1.5-2.1c-2.7-2.6-3.2-3.9-2.9-9.1c0.2-4.2,0.4-5,1.7-6.8c0.8-1.2,2.5-2.7,3.7-3.4
		c1.2-0.8,2.6-2,3.1-2.9c3-5.2,4.5-31,2.6-45.2c-1-7.9-3.9-19.5-5.6-22.6c-1.8-3.4-6.3-8.2-8.3-8.8c-2.1-0.7-3.1-0.3-4.1,1.6
		c-1,1.8-2.8,3.6-5.7,5.5c-1.8,1.1-2.8,1.4-5,1.4c-2.8,0-2.8-0.1-5.8-3.2c-3-3.2-5.6-4.8-7.9-4.8c-1.3,0-3.4-1.4-2.6-1.8
		c0.3-0.1,2.9-1.8,5.8-3.7c6.9-4.6,9.5-5.4,13.2-4.7c2.2,0.5,3.5,1.2,5.9,3.1c4.4,3.6,9.3,5.2,9.3,3c0-2.1-6.5-13.2-12.3-21.2
		c-14.9-20.3-32.3-34.4-57.7-46.8c-9.1-4.4-12.8-5.9-19.8-8c-12.1-3.5-23-4.9-36.8-4.9c-11.5-0.1-19.9,0.8-28.2,2.8
		c-3,0.7-7.1,1.6-9,2c-12.3,2.4-27.8,7.4-38,12c-3.8,1.8-8.8,4.1-11,5.2c-2.2,1-7.6,4-12,6.6c-4.4,2.6-8.7,5.1-9.5,5.6
		c-3.8,1.9-3.8,3.4-0.2,4c3.7,0.6,13.8,3.9,18.5,6c2.6,1.2,5.4,2.5,6.2,2.8c1.3,0.5,0,0.7-11.5,1c-7.2,0.2-15,0.5-17.2,0.9
		c-11,1.3-13,1.8-17.3,3.1c-4.9,1.6-6.5,1.7-6.3,0.3c0.4-2.1,9.7-16.9,23.3-36.8c4-5.9,11.9-15.1,12.4-14.5c0.2,0.1-1.1,3.1-2.7,6.8
		c-5.1,11-5.9,13.8-4.1,13.7c1.2,0,9-4.2,12-6.5c1.3-1.1,3.5-2.2,4.5-2.4c1.2-0.2,2.8-0.9,3.6-1.5c2-1.5,5.5-2.9,8.1-3.3
		c1.2-0.2,2.9-0.8,3.8-1.2c3.2-1.9,16.8-5.6,27-7.2c2.8-0.5,6.3-1.2,8-1.6c1.7-0.4,5.8-0.9,9.2-1.3c3.4-0.3,7.6-0.8,9.2-1
		c4.6-0.8,25.3-1.1,31.8-0.5c14.5,1.3,16.7,1.8,35,8.9c6.2,2.4,13.3,5,16,6c3.2,1.1,7.3,3.2,12.5,6.3c4.2,2.6,8.5,5,9.5,5.5
		s3.2,2.1,5,3.5c1.8,1.5,4.7,3.7,6.4,4.9c5.9,4.2,20.5,19.4,20.5,21.3c0,0.4,0.8,1.7,1.9,2.8c1.1,1.2,2.6,3.5,3.3,5
		c0.8,1.5,1.7,3,2,3.3c0.4,0.3,0.8,0.8,0.8,1c0,0.2,1.3,3.3,3,6.8c1.6,3.6,3.1,7.1,3.3,7.9s1.2,3.3,2.3,5.6s2,4.6,2,5.2
		c0,0.6,0.3,2.3,0.8,3.9c2,7.6,4.5,20.2,6,30.8c1.2,8.3,1.2,24.6,0,31.5c-1.6,8.8-1.7,8.1,0.6,10.4c2.6,2.7,3.1,3.6,3.5,7
		c0.2,2.1,0.1,3.4-0.5,5c-1,2.7-1.9,3.5-6.2,5.8c-3.1,1.8-3.4,2-5.9,6.6c-1.4,2.6-2.6,5.1-2.7,5.7c0,1.4-6.2,13.1-8.5,16.1
		c-1,1.4-2.1,3.1-2.3,3.8c-0.6,2-2.8,6.1-4.1,7.8c-0.6,0.8-2.7,3.6-4.5,6.2c-8.2,11.8-18.3,22.8-28.4,31c-12,9.8-17.8,14-22.2,16.2
		c-4.1,2.1-5,2.8-6.1,4.7c-1,1.8-1.8,2.4-3.7,3.1C924.8,297.2,923.7,297.3,921.1,296.6"/>
	<path class="st0" d="M891.8,290.6c0-0.1-6.4-0.3-14.1-0.5c-7.7-0.2-19-0.7-25-1.1c-6-0.5-15-1.1-19.8-1.4c-5-0.4-8.8-0.9-8.8-1.1
		c-0.1-0.3,0.6-0.8,1.7-1.2c5.5-2,10.2-4.2,10.2-4.9c0-0.9-1-1.2-6-2.7c-7-2-21.9-10.5-32.2-18.3c-1.6-1.2-4.2-3.2-5.8-4.4
		s-4.8-3.9-6.9-5.9c-5.9-5.5-6.8-6.2-10.2-7.3c-3.5-1.1-11.2-5.6-16.6-9.7c-2-1.5-5.3-3.7-7.5-4.8c-6.5-3.4-7.8-5.1-9.8-12.5
		c-1.2-4.8-2.9-8.3-4.4-9.8c-2.5-2.2-0.6-1.9,5.2,1.1c7.5,3.8,11.1,6.9,13.3,11.4c1.5,3,1.5,3.5,1.3,6.7c-0.3,3.5-0.3,3.5,2.2,5.7
		c3,2.6,6.2,4.4,9,4.7c2.5,0.3,2.5-0.3,0.2-3.7c-4.3-6.1-7.5-11.2-8.9-14.2c-0.8-1.8-2-4.3-2.6-5.5c-1.3-2.5-5.2-14.5-6.8-20.4
		c-2.2-8.9-2.3-13-1-38.8c0.3-7.1,0.3-11.4,0-14.5c-0.6-4.8-3.2-13.8-4-13.8c-1-0.1-4-3.2-4.8-5.3c-0.7-1.7-0.8-3.1-0.6-5.6
		c0.4-4.3,1.7-7.8,5.2-13.3c2.8-4.7,4.8-10.2,5.5-15.2c0.2-1.5,0.5-2.5,0.8-2.2c0.7,0.6,3.3,12.5,3.8,16.4
		c0.9,8.5-0.5,17.5-3.2,21.4c-2.9,4.1-2.8,3.9-1.6,10.1c1.1,5.7,1.8,7.4,2.8,6.1c0.3-0.4,1.2-2.8,2.2-5.4
		c1.9-5.6,8.3-18.2,12.4-24.5c5.5-8.4,10.2-14.1,21.3-25.2c6.6-6.7,20.1-17.3,25.8-20.3c4.1-2.2,5.7-4,7-8c1.2-3.4,1.2-3.5,0.3-5
		c-1.1-1.9-1.1-4.5,0.1-6.3c0.9-1.5,4.4-4.7,9.1-8.4c1.8-1.3,3.2-3,3.9-4.5c0.6-1.3,1.4-2.2,1.6-2c0.5,0.7-0.5,8.5-1.5,12.2
		c-1.5,5.1-3.7,8-7,9.2c-1.5,0.6-3,1.4-3.4,1.7c-0.8,0.8-0.8,5.5,0.1,5.5c0.3,0,2.6-0.8,5.1-1.8c5.9-2.4,13.5-5,18.5-6.2
		c2.2-0.6,4.2-1.2,4.6-1.6c0.4-0.3,0.7-1.9,0.7-4.3c0-5.2,1.2-7.7,4.9-9.9c3.5-2.1,5.8-2.4,9.3-1.4c6.8,2,10.2,9.5,7,15.6
		c-1.5,2.9-2.8,4.2-5.8,5.6c-4,1.8-7.9,1.2-11.8-1.8c-1.5-1.2-2-1.3-4.1-1.1c-1.3,0.2-4.4,1-6.8,1.8c-2.5,0.9-6.9,2.2-9.8,3.1
		c-7.2,2.2-13.8,5.2-17,7.8c-1.5,1.2-3.7,2.4-4.8,2.7c-4.7,1.3-19.7,13.4-27.8,22.4c-7,7.8-10.1,11.9-15.4,20.5
		c-5.5,9-7.6,13.3-11.4,23.5c-5.2,14.2-8,27.1-8.5,41.4c-0.3,6.3-0.2,7.6,1,13.6c2,10.1,3.8,15.9,7.5,23.6
		c9.5,20.4,29.5,42.6,46.5,51.6c6.5,3.5,15.8,7.3,22.3,9.1c2.5,0.8,7.7,2.2,11.4,3.3c5.6,1.7,6.8,1.9,7.3,1.4
		c1.1-1.1-1.8-20.1-3.5-23.4c-0.4-0.8-0.7-1.8-0.7-2.2c0-2.4,3,0.6,12.3,12.2c5.6,7,11,13.1,13.7,15.4c1,0.8,4.2,2.8,7.2,4.2
		c3,1.5,6.8,3.5,8.5,4.4c1.7,1,4,2.1,5.2,2.6c3.2,1.3,4.8,2.4,4,2.9C893.5,290.8,892.1,290.9,891.8,290.6"/>
	<path class="st0" d="M870.6,251.5c-0.8-0.1-3.1-0.6-5.3-1c-8.5-1.6-19.7-5.8-24.2-8.9c-1.5-1.1-4.8-3.2-7.2-4.8
		c-2.5-1.6-6.3-4.2-8.5-5.9c-3.2-2.5-4.9-3.4-9.2-4.8c-5.8-1.9-10-2.3-12.5-1.1c-4.1,2.1-8.2,1.6-11.5-1.6
		c-2.8-2.5-4.3-5.8-4.9-10.3c-0.5-3.6-1.5-5.7-3.6-8.4c-0.8-0.9-1.3-1.8-1.2-1.9c0.1-0.1,1,0.3,2.1,1c1,0.6,4.3,2.5,7.2,4
		c8,4.4,10.6,6.6,12.6,10.8c1.6,3.5,1.7,3.5,3.7,3.5c1.1,0,3,0.4,4.2,0.8c2.2,0.8,3.7,0.6,3.4-0.2c-0.1-0.2-1.6-1.9-3.2-3.6
		c-4.5-4.7-7.8-8.7-10.5-12.9c-1.4-2.1-3.2-4.9-4.1-6.1c-0.9-1.3-2.5-4.1-3.4-6.2c-1-2.2-3.1-6-4.7-8.6c-1.6-2.6-3.7-6.2-4.7-8.1
		c-1-1.8-2.7-4.1-3.8-5c-1.8-1.8-2.2-1.8-5.5-1.8c-4,0.1-5.5-0.8-6.9-3.6c-1-1.9-1-2.9-0.4-11.1c0.2-3.5,0.2-5.9-0.2-7
		c-0.5-1.6-0.5-1.6,0.5-0.4c0.5,0.6,1.4,1.7,1.9,2.2c0.4,0.6,2.3,2.1,4.1,3.5c5.5,4.3,7.9,9.2,6.5,13.4c-0.6,1.8-0.6,1.8,3,5.8
		c2,2.2,3.9,3.9,4.2,3.9c0.2-0.1,0.4-4.2,0.3-9.7c-0.1-9,0-10,1.5-17.2c0.8-4.2,2-9,2.5-10.6c0.5-1.6,1.3-5.4,1.8-8.2
		c1-7,3-14.1,4.8-18c1.5-3.2,2.6-4.1,1.3-1c-0.4,0.9-1.2,4-1.9,6.8c-0.9,4.2-1,5.3-0.5,5.8c0.5,0.5,0.8,0.4,1.3-0.3
		c0.4-0.6,3-4.2,5.7-8c8.3-11.9,14.1-17.8,25.5-26.4c3.6-2.7,4.9-4,6-6c1.8-3.4,4.4-6,6.9-6.7c2.8-0.8,3.5-0.8,6.5,0.6
		c4.8,2.2,6,6.3,3.3,11.4c-1.8,3.2-3.8,4.8-7.3,5.2c-3.2,0.4-4.9-0.2-7.9-3.1c-1.3-1.2-2.6-2.2-2.8-2.2c-0.6-0.1-4.1,2.4-7.9,5.5
		c-4.2,3.3-13.2,12.9-17.7,18.8c-8,10.3-14.5,24.8-17.5,38.6c-1,4.7-1,6.2-0.9,15.2c0.2,9.7,0.3,10.3,2.1,16.4
		c3,10.6,4.8,13.6,15.4,26.1c7.7,9,15.2,14.3,32.6,23.4c13.1,6.8,22.1,9.5,37.5,11.1c6.1,0.6,8,0.5,17.6-1.4
		c7.1-1.3,25.8-8.3,31.8-11.8c2.5-1.5,13-10.9,16.6-14.9c4.6-5.1,15.4-22.3,17.8-28.4c1.1-3,3.8-15.5,4.3-20.7
		c0.4-4.1-0.5-15.2-1.8-22.6c-2-11.2-2.2-12.3-1.8-12.6c0.1-0.1,0.6,0,1,0.2c0.9,0.8,1.4,0.1,2.3-2.6c0.3-1.1,1.2-3.3,2-4.8
		c1-2,1.2-3.2,1-4c-0.6-1.9-0.5-5.5,0.1-6.7c1-1.9,0.7-5.5-0.8-8c-1.3-2.2-1.3-2.4-0.3-2.4c1.6,0.1,7.1,5,8.5,7.8
		c2.6,5.2,1.8,10.4-2,12.1c-6.5,2.9-9.8,12.2-7.8,22c1.2,6.2,1.9,19.3,1.3,24.6c-0.3,2.4-0.7,4.8-0.8,5.3c-0.4,1.2,0.2,2.9,1,2.9
		c1.2,0,3.8-3.4,5.3-6.8c1.8-4.1,1.8-4.6,0.5-7.2c-1-1.9-1-2.1-0.2-4.6c0.4-1.5,1.9-4.3,3.2-6.4c1.3-2,2.8-4.9,3.3-6.2
		s0.9-2.9,1-3.2c0.4-1.2,1.1,0.1,2.7,5.2c1.9,6.1,2,10.5,0.5,13.9c-1,2.3-3,3.9-5,3.9c-1.4,0-3.3,2.4-6,7.7
		c-1.2,2.5-3.7,6.9-5.5,9.7c-1.8,3-3.7,6.7-4.3,8.8c-1.7,5.3-3.7,10-6.4,15c-2.8,5.1-2.8,6.1,0,5.6c4.8-0.9,5.5-1.2,6.4-3.2
		c1.2-2.6,2-3.2,6-4.8c1.9-0.7,4.5-2.1,5.8-3.1c3-2.1,6-6.6,7.1-10.4c1.6-5.6,1.8-5.3,1.6,2.6c-0.3,10.8-2,15-7.8,19.4
		c-4,3.1-7.3,3.9-10.5,2.6c-1.2-0.4-2.7-0.8-3.4-0.8c-0.6,0-3.8,1.4-7.1,3c-5.2,2.7-6.4,3.5-9.1,6.6c-5.3,6-10.9,10.3-19.1,14.9
		c-6.8,3.8-11.5,5.6-20,7.8C896.8,250.8,876.8,252.7,870.6,251.5"/>
	<path class="st0" d="M901.1,225.3c-3.8-3.1-6.9-5.2-10.9-7.2c-6.7-3.4-7.1-3.8-6-5.7c0.8-1.1,1.1-1.2,2.5-1c3,0.5,10,3.6,13.9,6.2
		c2.1,1.5,4.2,2.6,4.6,2.5c0.5-0.1,2-2.5,3.6-5.3c2.4-4.6,3.6-6.1,9.3-11.8c15-15.2,18.5-23.1,17.2-38.2c-0.3-3.6-0.8-7.9-1.1-9.4
		c-0.3-1.6-0.5-2.9-0.2-3.1c0.3-0.3,6.1-1.6,7.2-1.6c0.4,0,0,0.8-0.9,1.9c-0.8,1-1.8,2.7-2.3,3.6c-0.8,1.6-0.8,2,0.2,6
		c1.5,6.2,2.9,22.2,2.1,24.8c-1.2,4.1-4.6,8.4-15,18.7c-10.8,10.8-14.9,15.8-16.6,20.8c-0.5,1.4-1.2,2.8-1.7,2.9
		C906.8,229.6,904.3,228,901.1,225.3"/>
	<path class="st0" d="M875.8,211.2c-1.9-1.1-2.2-2-1-2.9c1.1-0.9,6,1.3,5.5,2.6C879.8,212.2,877.8,212.4,875.8,211.2"/>
	<path class="st0" d="M867,207.2c-1.4-0.8-1.1-2.6,0.5-2.8c1.8-0.2,3.7,0.9,3.3,2C870.4,207.5,868.3,207.9,867,207.2"/>
	<path class="st0" d="M859,203.2c-2-1.3-2.3-2.3-0.9-3.4c1.6-1.4,2.9-1.2,4.5,0.2c1.6,1.5,1.6,1.4,0.7,3
		C862.3,204.5,861,204.6,859,203.2"/>
	<path class="st0" d="M847.7,192.9c-2.8-3-9.7-15.9-16-30.4c-2.5-5.6-5.7-11.1-7.8-13.6c-1.8-2.2-2.1-3.5-1.7-7.5
		c0.3-2.4,1-4.4,2.8-8.1c3.6-7.2,6.8-10.8,13.7-15.4c6-4,10.5-5.8,15.4-6.4c3.8-0.4,6.7-2.6,8-5.8c1.5-4,4.2-11.7,5.5-15.4
		c1.3-4.2,3-6.7,5.9-9.1c2-1.6,8.9-4.8,11.5-5.4c1.2-0.3,1.2-0.3,0,1.3c-0.7,1-2.5,2.2-4.7,3.3c-5.5,2.7-7.5,4.6-10.5,10.6
		c-2.6,5.2-2.6,5.3-2.8,10.6c-0.1,4.3,0,5.7,0.7,7c1,2,0.8,2.4-2.9,4.3c-2.3,1.3-3.2,1.4-9.3,1.8c-9.2,0.5-12.3,1.5-16.5,5.4
		c-3.9,3.5-6.2,7.2-7.2,11.5c-1.1,4.3-0.7,7.1,1.5,9.2c5.8,6.1,35.8,11.6,58.4,10.7c4.4-0.2,8-0.2,8-0.1c0,1.3-18,5.9-26,6.8
		c-2.7,0.2-9.1,0.4-14.4,0.4c-9.6,0.1-9.6,0.1-10.4,1.3c-0.7,1-0.8,1.9-0.5,4.6c0.6,5.7,2.8,16.1,4.4,21c1.7,5.2,1.7,5.2-1.6,7.4
		C849,194.3,849,194.3,847.7,192.9"/>
	<path class="st0" d="M929,142.6c0-0.1,1.2-2,2.7-4.3c3.2-4.9,4.1-8.2,3.3-12.1c-0.7-3.4-1.6-4.9-4-7.1c-2.7-2.4-3.9-3-10.5-4.9
		c-5.6-1.6-6-1.6-15.5-1.7c-5.4,0-11.7,0.2-14,0.4c-4.9,0.5-5.7,0.2-9.7-3.2c-4.4-3.8-5.4-7.8-2.8-11.3c2.1-2.8,2.8-2.7,3.1,0.7
		c0.6,5.3,3.7,9.4,8.3,10.8c1,0.2,5.8,0.6,10.6,0.8c11.2,0.3,15.3,0.9,22.6,3.3c7.2,2.3,9.6,3.9,12.4,8.1c2.8,4.2,3.5,6.9,3.1,10.8
		c-0.2,2.7-0.1,3.1,0.7,3.4c0.5,0.2,1.5,0,2.3-0.5c1.2-0.7,1.5-0.7,1.7-0.1c0.7,1.9-2.3,4.2-8.2,6.3
		C932.8,142.6,929,143.1,929,142.6"/>
	<path class="st0" d="M959.2,123.4c-0.2-0.5-0.4-1.1-0.6-1.3c-0.1-0.3,0.2-0.1,0.6,0.4c0.8,1,1,1.8,0.5,1.8
		C959.6,124.3,959.3,123.9,959.2,123.4"/>
	<path class="st0" d="M950.2,109.3c-1.5-1.7-1.7-2.6-0.2-1.3c1.1,1,2.2,2.8,1.8,2.8C951.6,110.8,950.9,110.1,950.2,109.3"/>
	<path class="st0" d="M801.2,104.3c-0.7-2.6-0.7-3.2,0-5c2-5.7,8-12.3,14.3-15.8c6-3.2,6.7-3,2.9,0.8c-3.7,3.7-6.1,8-7.2,13.5
		c-1.5,6.4-3.1,8.4-7.7,9.2C802,107.2,802,107.2,801.2,104.3"/>
	<path class="st0" d="M941.3,100.8c-7.4-6.1-19.1-13.7-25.3-16.4c-2.1-0.9-3.8-1.8-3.9-2.1c-0.1-0.2,1.8-0.6,4.2-0.8
		c6.2-0.4,10.8-1.6,15.1-3.8c6.4-3.3,6.7-2.5,0.9,2.6c-4.6,4.2-5.3,4.9-5.3,5.8c0,0.3,1.5,1.8,3.3,3.2c2.9,2.2,16.1,15.1,15.4,15.1
		C945.6,104.3,943.6,102.7,941.3,100.8"/>
	<path class="st0" d="M880,90.1c0-0.4,1.1-2.2,2.5-4.2c2.5-3.7,3-4,9.6-6.4c1.2-0.5,2.7-1.3,3.2-1.8c0.8-0.9,0.7-1.1-1.7-3.6
		c-3-3.2-3.8-4.5-4.8-9.2c-0.7-2.6-0.8-4.9-0.7-8.2c0.2-5.4,1.2-7.8,5.6-14.4c1.5-2.4,2.9-5.1,3.1-5.9c0.5-2.3,1.8-1.8,2.4,0.8
		c0.4,1.8,0.2,2.9-1.2,7.2c-1.7,5.5-2,9.1-1,11.2c1.2,2.6,1.8,2,2-2.4c0.3-4.3,1.6-8.3,2.7-8.3c0.5,0,0.7,0.7,0.7,2.3
		c0,3,1,4.7,3,4.7c1.8,0,3-1.6,3-4c0-1-0.8-4.1-1.8-7.1c-1.5-4.4-1.8-6.2-1.8-9.3c0-4.4,1.2-8.2,2.6-8.6c0.8-0.1,0.9,0.2,0.9,2.4
		c0,3.1,0.8,5.4,4.6,11.8c4.4,7.5,5.2,11.7,3.7,16.9c-1,3.5,0.8,3.8,2.2,0.3c1-2.6,2-1.9,2,1.6c0,8.7-4.8,17-12,20.6
		c-1.4,0.7-3.2,1.3-4.1,1.3c-1,0-2.7,0.7-4.5,1.9c-2.5,1.7-6,3.2-13.5,6c-0.7,0.3-2.5,1.5-3.9,2.8C880.2,90.9,880,91.1,880,90.1"/>
</g>
</svg>
